Coordinates
version=1
nRows=17
nColumns=40
inDegrees=yes

Units are S.I. units (second, meters, Newtons, ...)
Angles are in degrees.

endheader
time	pelvis_tilt	pelvis_list	pelvis_rotation	pelvis_tx	pelvis_ty	pelvis_tz	hip_flexion_r	hip_adduction_r	hip_rotation_r	knee_angle_r	knee_angle_r_beta	ankle_angle_r	subtalar_angle_r	mtp_angle_r	hip_flexion_l	hip_adduction_l	hip_rotation_l	knee_angle_l	knee_angle_l_beta	ankle_angle_l	subtalar_angle_l	mtp_angle_l	lumbar_extension	lumbar_bending	lumbar_rotation	arm_flex_r	arm_add_r	arm_rot_r	elbow_flex_r	pro_sup_r	wrist_flex_r	wrist_dev_r	arm_flex_l	arm_add_l	arm_rot_l	elbow_flex_l	pro_sup_l	wrist_flex_l	wrist_dev_l
     32.92500000	     -1.87971796	     -4.96215582	      6.70399468	      1.04806583	      0.93087733	      0.48751642	      7.31402152	      4.06387107	    -15.04037486	     15.58292135	     15.58292135	     12.24956674	     -2.86429399	     -4.58789389	     34.65269483	    -14.06597005	      0.04084586	     49.91749762	     49.91749762	      8.86676506	    -18.90023643	     15.00426961	    -10.10387298	      5.98457478	      1.90672614	     23.03560345	    -20.85368392	     -9.76722857	     81.19466282	     44.85634893	      0.00000000	      0.00000000	      0.82348946	     -7.52577288	     -3.39541536	     26.47944622	     45.67266393	      0.00000000	      0.00000000
     32.93885714	     -2.12095576	     -5.00236362	      6.99773805	      1.04666034	      0.93060912	      0.48729598	      6.94377314	      4.16011277	    -15.40383569	     14.91140043	     14.91140043	     11.98542487	     -2.60514928	     -5.64234441	     34.85341735	    -13.71725161	     -0.03397565	     46.08481005	     46.08481005	      8.83111404	    -18.75376017	     14.24685121	    -10.09504089	      6.06561663	      2.89598088	     23.16579447	    -21.52674026	    -11.15823261	     84.72691202	     44.85850673	      0.00000000	      0.00000000	     -0.00259671	     -7.56631007	      1.21620972	     26.64161596	     44.88542729	      0.00000000	      0.00000000
     32.95271429	     -2.44652202	     -5.00756691	      7.23344180	      1.04509126	      0.93019791	      0.48685037	      6.78525777	      4.18367897	    -15.58715774	     14.49465237	     14.49465237	     12.11003189	     -2.48811149	     -5.65634630	     35.06303606	    -13.22350295	      0.05796237	     42.26760244	     42.26760244	      9.10668131	    -18.34840525	     14.60749201	     -9.93035232	      6.09023070	      3.10260947	     24.73736126	    -21.78949116	    -11.36057512	     85.60527307	     44.84641918	      0.00000000	      0.00000000	     -0.92156864	     -7.09886275	      1.44995875	     26.34608992	     44.83373625	      0.00000000	      0.00000000
     32.96657143	     -2.53452567	     -5.04520013	      7.51658940	      1.04380306	      0.93014232	      0.48625437	      6.20875256	      4.26777562	    -16.07231686	     13.80937823	     13.80937823	     12.16809700	     -1.80292393	     -5.77093695	     34.84937173	    -12.70907195	      0.39246557	     38.31535107	     38.31535107	      9.04654536	    -17.84015021	     14.42363370	    -10.06010987	      6.15748505	      2.83346990	     26.32967945	    -21.40939296	    -11.38323023	     87.12305702	     44.81318009	      0.00000000	      0.00000000	     -2.06086170	     -6.82534476	      2.04938310	     26.12626491	     44.71918052	      0.00000000	      0.00000000
     32.98042857	     -2.77712111	     -5.08707985	      7.70940437	      1.04251914	      0.92975439	      0.48554130	      5.89371193	      4.31552515	    -16.41418896	     13.30374471	     13.30374471	     12.26757198	     -1.31356080	     -5.92556499	     34.74115279	    -12.25872069	      0.62178557	     34.52026182	     34.52026182	      9.03601236	    -16.80266308	     14.19294310	     -9.98775170	      6.21482379	      2.96074293	     27.71226678	    -21.44383769	    -11.50789667	     88.11205627	     44.79798448	      0.00000000	      0.00000000	     -3.03205730	     -6.53769709	      2.52891832	     26.06689667	     44.62489748	      0.00000000	      0.00000000
     32.99428571	     -3.05986746	     -5.17477847	      7.86828531	      1.04129641	      0.92921360	      0.48479041	      5.64113350	      4.40683320	    -16.70971052	     12.82055715	     12.82055715	     12.34242687	     -0.88527040	     -6.04739231	     34.66812913	    -11.90622020	      0.81978995	     30.97351345	     30.97351345	      9.05163648	    -15.25798582	     14.11376451	     -9.84124265	      6.28835242	      3.14343455	     29.06673737	    -21.51717556	    -11.66932462	     88.93392114	     44.78690810	      0.00000000	      0.00000000	     -3.89491917	     -6.22589044	      2.87909097	     25.99633729	     44.55269633	      0.00000000	      0.00000000
     33.00814286	     -3.11262553	     -5.31195952	      8.03301002	      1.04047719	      0.92881682	      0.48387725	      5.02050078	      4.52357632	    -17.57487869	     12.18220772	     12.18220772	     12.36762418	      0.58823297	     -6.83979560	     34.19924639	    -11.72291569	      0.81474245	     27.41755838	     27.41755838	      7.70671539	    -13.60765895	     10.60022387	     -9.94120539	      6.50381428	      3.06691606	     30.51388746	    -21.20025464	    -11.77036342	     89.59146277	     44.82379841	      0.00000000	      0.00000000	     -5.53472414	     -6.58889354	      6.15123272	     27.73733048	     44.01745666	      0.00000000	      0.00000000
     33.02200000	     -3.28456319	     -5.44589447	      8.11557458	      1.03966444	      0.92834134	      0.48300365	      4.58877102	      4.71479607	    -17.68498249	     11.61277316	     11.61277316	     12.44317763	      0.87280293	     -6.81750945	     33.98053025	    -11.54639948	      0.79656112	     24.54140701	     24.54140701	      7.74824469	    -11.60742735	     10.97609716	     -9.90019884	      6.64030414	      3.24538685	     31.67742814	    -21.10037547	    -11.89133018	     90.20522471	     44.81883520	      0.00000000	      0.00000000	     -6.26511903	     -6.38283191	      6.57314216	     27.54366729	     43.95226870	      0.00000000	      0.00000000
     33.03585714	     -3.42863357	     -5.57925049	      8.16221058	      1.03910164	      0.92783819	      0.48205022	      4.10579393	      4.89083507	    -17.87858763	     11.05208737	     11.05208737	     12.53818917	      1.42551623	     -6.86370124	     33.75481229	    -11.44180054	      0.55160701	     22.13822931	     22.13822931	      7.67412811	     -9.55528469	     11.27159300	     -9.82934335	      6.77683644	      3.44694328	     32.73353803	    -20.93932018	    -12.04048599	     90.61113401	     44.82014250	      0.00000000	      0.00000000	     -6.95014791	     -6.22387331	      6.94449029	     27.51236314	     43.89265147	      0.00000000	      0.00000000
     33.04971429	     -3.63461408	     -5.85558888	      8.20485264	      1.03858848	      0.92702770	      0.48097957	      3.80767264	      5.17391190	    -18.06562243	     10.68764795	     10.68764795	     12.67849782	      1.85047795	     -6.93907587	     33.73663598	    -11.44680658	      0.35947945	     20.32462443	     20.32462443	      7.40609823	     -7.99276295	     11.55185529	     -9.61976666	      7.09488777	      3.71687388	     33.72469335	    -20.95376238	    -12.21678420	     90.86518986	     44.82471567	      0.00000000	      0.00000000	     -7.53395408	     -6.01431902	      7.17208387	     27.53283603	     43.85256954	      0.00000000	      0.00000000
     33.06357143	     -3.55995018	     -5.91995105	      8.13406820	      1.03873124	      0.92678681	      0.47994081	      2.92339518	      5.31287375	    -18.41812033	      9.92449366	      9.92449366	     12.82131321	      2.96028877	     -6.97061597	     33.22013109	    -11.48207771	     -0.62682760	     18.85136148	     18.85136148	      7.20163366	     -5.96049298	     11.48695872	     -9.74723032	      7.10352378	      3.75051341	     34.62407114	    -20.38310496	    -12.42423423	     90.78847636	     44.84467704	      0.00000000	      0.00000000	     -8.31487508	     -6.05086961	      7.73467186	     27.91418071	     43.76417301	      0.00000000	      0.00000000
     33.07742857	     -3.62637088	     -6.15466385	      8.09106072	      1.03881263	      0.92598441	      0.47871018	      2.44414396	      5.52448136	    -18.81032122	      9.63481910	      9.63481910	     13.19548918	      3.95876372	     -6.72606752	     32.97884343	    -11.56047549	     -1.22451660	     17.87725580	     17.87725580	      6.25381459	     -4.92063433	     10.10205032	     -9.63773483	      7.34519114	      3.43240738	     36.07940210	    -19.67539718	    -12.14387046	     89.55824897	     44.93344477	      0.00000000	      0.00000000	     -9.84025150	     -6.78288147	     11.45015340	     30.59450842	     43.32789425	      0.00000000	      0.00000000
     33.09128571	     -3.82338247	     -6.34209314	      7.90129460	      1.03899970	      0.92501841	      0.47746004	      2.18559110	      5.66773449	    -18.67130555	      9.49086396	      9.49086396	     13.42893474	      4.21231047	     -6.80573117	     32.90540707	    -11.59019040	     -1.72096609	     17.49295548	     17.49295548	      5.73412968	     -4.66557325	     10.30954913	     -9.38782126	      7.49364206	      3.81678039	     36.42963693	    -19.62891225	    -12.20353069	     89.61139343	     44.93643071	      0.00000000	      0.00000000	    -10.19635486	     -6.68520934	     11.53762471	     30.53393653	     43.31657893	      0.00000000	      0.00000000
     33.10514286	     -3.88302493	     -6.45155521	      7.71374783	      1.03953881	      0.92430077	      0.47611648	      1.66549354	      5.76184386	    -18.64001616	      9.19576578	      9.19576578	     13.67235999	      4.69661715	     -6.82150773	     32.45838456	    -11.60781479	     -2.45963835	     17.14185386	     17.14185386	      5.10882569	     -4.28316613	     10.26845019	     -9.29279336	      7.50234676	      4.13247596	     36.78527497	    -19.41840222	    -12.37557098	     89.39606487	     44.95301336	      0.00000000	      0.00000000	    -10.41166242	     -6.59342778	     11.72855557	     30.68654753	     43.29853206	      0.00000000	      0.00000000
     33.11900000	     -3.79343524	     -6.60721501	      7.57210211	      1.04044684	      0.92356207	      0.47445101	      0.92446106	      5.88389036	    -18.94816262	      8.86196858	      8.86196858	     14.05893966	      5.79052902	     -6.54665395	     31.89502605	    -11.69458776	     -3.16984830	     17.15572739	     17.15572739	      4.00044295	     -4.11720006	      8.54695828	     -9.20676933	      7.64853826	      4.11982562	     37.32562932	    -18.75392636	    -13.01706023	     87.99922431	     45.03151648	      0.00000000	      0.00000000	    -10.96218840	     -6.83512935	     12.50804949	     31.63246156	     43.23126597	      0.00000000	      0.00000000
     33.13285714	     -3.87583997	     -6.70360611	      7.33317504	      1.04124817	      0.92254853	      0.47277696	      0.62675327	      5.86856862	    -18.69539084	      9.01037054	      9.01037054	     14.45029168	      5.85780443	     -6.58173275	     31.54218339	    -11.67488463	     -3.50908557	     17.50265531	     17.50265531	      3.28001143	     -4.62245139	      8.36267327	     -9.04615227	      7.66656059	      4.30806544	     37.34263865	    -18.56225454	    -12.93552483	     87.78304202	     45.03796094	      0.00000000	      0.00000000	    -11.09593538	     -6.82549510	     12.66978208	     31.81671207	     43.21945521	      0.00000000	      0.00000000
     33.14671429	     -3.89059156	     -6.80571738	      7.08218869	      1.04225180	      0.92152810	      0.47084827	      0.30110461	      5.81321928	    -18.53170581	      9.32488200	      9.32488200	     15.21983596	      6.16642407	     -5.73514041	     30.82160197	    -11.55670796	     -3.37421577	     17.37662760	     17.37662760	      1.12618269	     -6.20954751	      4.95453732	     -8.86193612	      7.70788638	      4.02091348	     37.92984861	    -17.83415866	    -12.80757690	     85.96687112	     45.11289245	      0.00000000	      0.00000000	    -11.79610688	     -7.25305014	     14.01833562	     33.30875122	     43.15346750	      0.00000000	      0.00000000
